<svg id="Layer_1" data-name="Layer 1" xmlns="http://www.w3.org/2000/svg" xmlns:xlink="http://www.w3.org/1999/xlink" viewBox="0 0 576.5 289.5"><defs><style>.cls-1{fill:none;}.cls-2{clip-path:url(#clip-path);}.cls-3{fill:#c4c4c4;}.cls-4{fill:#231f20;}</style><clipPath id="clip-path"><rect class="cls-1" x="0.5" width="576" height="288"/></clipPath></defs><title>Artboard 153</title><g class="cls-2"><g id="triangle36"><path class="cls-3" d="M589.89,85.63,560.08,69.15l8-7.19,21.81,16v-.31l-21.74-16a.13.13,0,0,0-.16,0l-8.25,7.39a.12.12,0,0,0,0,.1.14.14,0,0,0,.07.1l30.08,16.63Z"/></g><g id="triangle36-2" data-name="triangle36"><path class="cls-3" d="M589.78,108.17,560.33,69.58l29.56,16.34v-.29l-30-16.56a.13.13,0,0,0-.16.19l30,39.32Z"/></g><g id="triangle36-3" data-name="triangle36"><path class="cls-3" d="M468.23,292.44l40.1-18.08,3.93,18.31h.26l-4-18.51a.11.11,0,0,0-.06-.09.14.14,0,0,0-.11,0l-40.74,18.37Z"/></g><g id="triangle36-4" data-name="triangle36"><polygon class="cls-3" points="588.88 284.52 562.57 292.93 563.38 292.93 588.88 284.78 588.88 284.52"/></g><g id="triangle36-5" data-name="triangle36"><path class="cls-3" d="M589.93,77.68,568.48,61.91,590,61.2V61l-21.91.72a.13.13,0,0,0-.07.23L589.93,78Z"/></g><g id="triangle36-6" data-name="triangle36"><path class="cls-3" d="M589.47,167.55l-29-1.71,23.46-14.23,5.63,4.39v-.32L584,151.36a.12.12,0,0,0-.14,0L560,165.83a.12.12,0,0,0-.05.14.12.12,0,0,0,.11.09l29.45,1.74Z"/></g><g id="triangle36-7" data-name="triangle36"><path class="cls-3" d="M374,292l4.78-8.15,1,8.18H380l-1-8.58a.13.13,0,0,0-.1-.11.11.11,0,0,0-.13.06L373.7,292Z"/></g><g id="triangle36-8" data-name="triangle36"><polygon class="cls-3" points="588.88 284.52 562.57 292.93 563.38 292.93 588.88 284.78 588.88 284.52"/><path class="cls-3" d="M588.88,283.16l-27.58-6.85a.13.13,0,0,0-.15.09L557,292.9h.25l4.13-16.32,27.52,6.84Z"/></g><g id="triangle36-9" data-name="triangle36"><path class="cls-3" d="M589.18,226l-15.07,8.65-11.39-3,26.48-10.14v-.27l-26.92,10.31a.12.12,0,0,0-.08.13.12.12,0,0,0,.09.11l11.8,3.15h0l.07,0,15-8.6Z"/></g><g id="triangle36-10" data-name="triangle36"><path class="cls-3" d="M512.52,292.67l-3.93-18.29,15.22,5.4-6.57,12.91h.28l6.58-12.94a.12.12,0,0,0,0-.1.14.14,0,0,0-.08-.07l-15.57-5.52a.11.11,0,0,0-.12,0,.14.14,0,0,0,0,.12l4,18.46Z"/></g><g id="triangle36-11" data-name="triangle36"><path class="cls-3" d="M517.52,292.7,524,280l8.07,12.81h.29l-8.26-13.13a.14.14,0,0,0-.12-.06.12.12,0,0,0-.1.07l-6.64,13Z"/></g><g id="triangle36-12" data-name="triangle36"><path class="cls-3" d="M532.07,292.77h.29l-8-12.77,27.48,12.87h.6L524,279.59a.12.12,0,0,0-.14,0,.12.12,0,0,0,0,.15Z"/></g><g id="triangle36-13" data-name="triangle36"><path class="cls-3" d="M523.94,279.82l27.86,13.05h.6l-27.94-13.08,36.65-3.22L557,292.9h.25l4.16-16.44a.14.14,0,0,0,0-.11.15.15,0,0,0-.11,0L524,279.58a.13.13,0,0,0-.11.11A.12.12,0,0,0,523.94,279.82Z"/></g><g id="triangle36-14" data-name="triangle36"><path class="cls-3" d="M380,292l-1-8.32,13,8.38h.47l-13.52-8.74a.11.11,0,0,0-.13,0,.11.11,0,0,0-.06.12l1,8.55Z"/></g><g id="triangle36-15" data-name="triangle36"><path class="cls-3" d="M462.8,207.88l-.07,0a.1.1,0,0,1-.06-.08l-1.28-6.19a.16.16,0,0,1,0-.1.12.12,0,0,1,.09-.05l31.7-3.67a.12.12,0,0,1,.14.09.13.13,0,0,1-.08.15l-30.42,9.86Zm-1.13-6.21,1.22,5.92L492,198.16Z"/></g><g id="triangle36-16" data-name="triangle36"><path class="cls-3" d="M362.27,291.9,363.91,274l14.78,9.43-5,8.5H374l5-8.48a.11.11,0,0,0,0-.16l-15.05-9.61a.2.2,0,0,0-.13,0,.14.14,0,0,0-.06.11L362,291.9Z"/></g><g id="triangle36-17" data-name="triangle36"><path class="cls-3" d="M378.85,283.55l-.06,0-15.06-9.61a.12.12,0,0,1-.05-.1.09.09,0,0,1,.05-.1l25.7-18.06a.14.14,0,0,1,.15,0,.13.13,0,0,1,0,.14L379,283.47a.11.11,0,0,1-.08.07ZM364,273.81l14.77,9.42,10.45-27.13Z"/></g><g id="triangle36-18" data-name="triangle36"><path class="cls-3" d="M424.49,284.27h0l-45.63-.72a.13.13,0,0,1-.1-.06.11.11,0,0,1,0-.11l10.64-27.66a.14.14,0,0,1,.09-.08.14.14,0,0,1,.11,0l35,28.39a.12.12,0,0,1,0,.14A.11.11,0,0,1,424.49,284.27Zm-45.46-1,45.1.72-34.57-28Z"/></g><g id="triangle36-19" data-name="triangle36"><path class="cls-3" d="M392,292.05h.47l-13.15-8.51,44.72.72-14.3,7.87h.52l14.32-7.89a.13.13,0,0,0,.06-.14.14.14,0,0,0-.12-.1l-45.63-.72h0a.13.13,0,0,0-.12.08.14.14,0,0,0,.06.15Z"/></g><g id="triangle36-20" data-name="triangle36"><path class="cls-3" d="M410.23,292.15l13.9-7.66-4.73,7.7h.29l4.9-8a.12.12,0,0,0-.16-.17l-14.72,8.1Z"/></g><g id="triangle36-21" data-name="triangle36"><path class="cls-3" d="M419.69,292.2l4.85-7.9,27.64,8.06h.91L424.52,284a.13.13,0,0,0-.14.05l-5,8.11Z"/></g><g id="triangle36-22" data-name="triangle36"><path class="cls-3" d="M546,219.19h-.05L493.17,198a.12.12,0,0,1-.08-.09.13.13,0,0,1,.05-.12l26.7-22a.19.19,0,0,1,.1,0,.15.15,0,0,1,.09.06L546.08,219a.14.14,0,0,1,0,.15A.11.11,0,0,1,546,219.19Zm-52.51-21.34,52.21,21-25.78-42.74Z"/></g><g id="triangle36-23" data-name="triangle36"><path class="cls-3" d="M546,219.19a.13.13,0,0,1-.11-.06l-26-43.19a.12.12,0,0,1,0-.1.18.18,0,0,1,.07-.08L541.76,166a.11.11,0,0,1,.11,0,.11.11,0,0,1,.06.1l4.16,53a.12.12,0,0,1-.08.13ZM520.1,175.93l25.7,42.62-4.1-52.27Z"/></g><g id="triangle36-24" data-name="triangle36"><path class="cls-3" d="M546,219.19h0a.13.13,0,0,1-.12-.11l-4.16-53a.14.14,0,0,1,0-.09.13.13,0,0,1,.1,0l18.22-.16a.31.31,0,0,1,.1.05.14.14,0,0,1,0,.11L546.09,219.1A.13.13,0,0,1,546,219.19Zm-4-53,4.1,52.12,13.83-52.27Z"/></g><g id="triangle36-25" data-name="triangle36"><path class="cls-3" d="M589.2,221.22l-26.86,10.29-16.05-12.35,42.94-4.6v-.25L546,218.94a.13.13,0,0,0-.11.09.12.12,0,0,0,0,.14l16.35,12.58.08,0h0l26.83-10.28Z"/></g><g id="triangle36-26" data-name="triangle36"><path class="cls-3" d="M541.81,166.22a.15.15,0,0,1-.12-.08.12.12,0,0,1,0-.14l18.15-17.35a.11.11,0,0,1,.13,0,.13.13,0,0,1,.08.12l.07,17.2a.12.12,0,0,1-.12.12l-18.22.16Zm18-17.19L542.12,166l17.78-.15Z"/></g><g id="triangle36-27" data-name="triangle36"><path class="cls-3" d="M589.64,134.23l-29.56,14.31-.09-79,29.78,39v-.41L560,69.1a.13.13,0,0,0-.14,0,.14.14,0,0,0-.09.12l.09,79.56a.11.11,0,0,0,.06.1.07.07,0,0,0,.06,0H560l29.63-14.34Z"/></g><g id="triangle36-28" data-name="triangle36"><path class="cls-3" d="M560,166.06H560a.15.15,0,0,1-.07-.11l-.07-17.2a.1.1,0,0,1,0-.09.13.13,0,0,1,.1,0l23.95,2.72a.14.14,0,0,1,.11.1.11.11,0,0,1-.06.13L560.09,166A.07.07,0,0,1,560,166.06Zm.05-17.18.07,16.84,23.38-14.18Z"/></g><g id="triangle36-29" data-name="triangle36"><path class="cls-3" d="M589.59,144.51l-5.74,6.82-23.46-2.67,29.25-14.15v-.28l-29.74,14.4a.11.11,0,0,0-.07.13.12.12,0,0,0,.11.1l23.95,2.72h0a.11.11,0,0,0,.09,0l5.59-6.64Z"/></g><g id="triangle36-30" data-name="triangle36"><path class="cls-3" d="M424.45,284.27l27.73,8.09h.91l-28.27-8.25L475,258.31l-12.11,34.11h.26L475.3,258.1a.12.12,0,0,0,0-.14.14.14,0,0,0-.14,0L424.43,284a.12.12,0,0,0-.07.12A.14.14,0,0,0,424.45,284.27Z"/></g><g id="triangle36-31" data-name="triangle36"><path class="cls-3" d="M463.11,292.42l12.14-34.19,32.88,15.95-40.5,18.26h.6l40.24-18.14a.13.13,0,0,0,.08-.11.14.14,0,0,0-.07-.12l-33.24-16.13a.14.14,0,0,0-.11,0,.16.16,0,0,0-.07.07l-12.21,34.41Z"/></g><g id="triangle36-32" data-name="triangle36"><path class="cls-3" d="M477.35,218.84l-.07,0-14.56-11a.12.12,0,0,1,0-.16.12.12,0,0,1,.15-.06l23.1,8.41a.12.12,0,0,1,.09.12.13.13,0,0,1-.09.11l-8.55,2.56Zm-13.81-10.68,13.84,10.42,8.12-2.43Z"/></g><g id="triangle36-33" data-name="triangle36"><path class="cls-3" d="M485.9,216.29h0l-23.11-8.41a.12.12,0,0,1-.08-.12.12.12,0,0,1,.09-.11l30.42-9.87a.13.13,0,0,1,.13,0,.14.14,0,0,1,0,.14L486,216.21A.13.13,0,0,1,485.9,216.29Zm-22.72-8.53L485.83,216,493,198.09Z"/></g><g id="triangle36-34" data-name="triangle36"><path class="cls-3" d="M475.18,258.18h0a.12.12,0,0,1-.1-.13l2.17-39.34a.12.12,0,0,1,.09-.11l8.55-2.56a.14.14,0,0,1,.12,0,.13.13,0,0,1,0,.12L475.3,258.08A.12.12,0,0,1,475.18,258.18Zm2.29-39.37-2.09,38,10.35-40.44Z"/></g><g id="triangle36-35" data-name="triangle36"><path class="cls-3" d="M546,219.19h0l-60.07-2.9a.1.1,0,0,1-.09-.06.11.11,0,0,1,0-.11l7.32-18.28a.16.16,0,0,1,.07-.07.14.14,0,0,1,.09,0L546,219a.14.14,0,0,1,.08.15A.12.12,0,0,1,546,219.19Zm-59.89-3.14,59.15,2.86-51.94-20.86Z"/></g><g id="triangle36-36" data-name="triangle36"><path class="cls-3" d="M493.22,198h-.05a.16.16,0,0,1-.08-.1l-6.16-47.67a.15.15,0,0,1,.07-.13.12.12,0,0,1,.13,0L520,175.78a.12.12,0,0,1,0,.1.12.12,0,0,1,0,.09l-26.7,22Zm-6-47.5,6.09,47.14,26.41-21.77Z"/></g><g id="triangle36-37" data-name="triangle36"><path class="cls-3" d="M519.92,176l-.07,0L487,150.32a.16.16,0,0,1-.05-.11.14.14,0,0,1,.08-.1l28.63-12.85a.14.14,0,0,1,.11,0,.11.11,0,0,1,.06.09l4.24,38.5a.15.15,0,0,1-.07.13ZM487.3,150.25l32.47,25.35-4.19-38Z"/></g><g id="triangle36-38" data-name="triangle36"><path class="cls-3" d="M515.69,137.5h0a.13.13,0,0,1-.1-.09L501.9,80.67a.12.12,0,0,1,0-.1.1.1,0,0,1,.08,0l57.84-11.46a.13.13,0,0,1,.13,0,.12.12,0,0,1,0,.14l-44.18,68.19A.11.11,0,0,1,515.69,137.5ZM502.18,80.74l13.56,56.32,43.86-67.7Z"/></g><g id="triangle36-39" data-name="triangle36"><path class="cls-3" d="M519.92,176h-.06a.13.13,0,0,1-.06-.1l-4.24-38.5a.14.14,0,0,1,.08-.13.12.12,0,0,1,.14,0L541.9,166a.11.11,0,0,1,0,.11.11.11,0,0,1-.07.08L520,176Zm-4.07-38.26L520,175.69l21.57-9.64Z"/></g><g id="triangle36-40" data-name="triangle36"><path class="cls-3" d="M541.81,166.22h0l-.09,0L515.6,137.46a.12.12,0,0,1,0-.15.11.11,0,0,1,.14-.05L560,148.62a.11.11,0,0,1,.09.09.13.13,0,0,1,0,.12l-18.15,17.35A.12.12,0,0,1,541.81,166.22ZM516.06,137.6l25.75,28.31L559.7,148.8Z"/></g><g id="triangle36-41" data-name="triangle36"><path class="cls-3" d="M560,148.86h0L515.66,137.5a.14.14,0,0,1-.09-.08.14.14,0,0,1,0-.11l44.18-68.2a.11.11,0,0,1,.14,0,.13.13,0,0,1,.09.12l.09,79.56a.14.14,0,0,1-.05.1ZM515.89,137.3l43.94,11.28-.09-79Z"/></g><g id="triangle36-42" data-name="triangle36"><path class="cls-3" d="M475.18,258.18a.15.15,0,0,1-.09,0,.13.13,0,0,1,0-.12l10.72-41.89a.11.11,0,0,1,.08-.08.11.11,0,0,1,.11,0l45.48,31.41a.13.13,0,0,1,0,.13.13.13,0,0,1-.1.1l-56.2,10.48ZM486,216.37l-10.63,41.52,55.71-10.38Z"/></g><g id="triangle36-43" data-name="triangle36"><path class="cls-3" d="M508.42,274.31h-.05l-33.24-16.13a.13.13,0,0,1-.07-.13.11.11,0,0,1,.1-.11l56.19-10.48a.14.14,0,0,1,.14.06.14.14,0,0,1,0,.15l-23,26.61A.18.18,0,0,1,508.42,274.31Zm-32.84-16.2L508.39,274l22.66-26.27Z"/></g><g id="triangle36-44" data-name="triangle36"><path class="cls-3" d="M531.38,247.7l-.07,0-45.48-31.41a.13.13,0,0,1-.05-.15.13.13,0,0,1,.13-.08l60.06,2.9a.14.14,0,0,1,.11.07.13.13,0,0,1,0,.12l-14.59,28.5a.18.18,0,0,1-.08.07Zm-45.05-31.39,45,31.08,14.44-28.21Z"/></g><g id="triangle36-45" data-name="triangle36"><path class="cls-3" d="M524,279.83h0l-15.57-5.53a.11.11,0,0,1-.08-.08.13.13,0,0,1,0-.12l22.95-26.61a.14.14,0,0,1,.15,0,.14.14,0,0,1,.07.14l-7.39,32.14a.16.16,0,0,1-.06.08Zm-15.35-5.7,15.26,5.41,7.24-31.5Z"/></g><g id="triangle36-46" data-name="triangle36"><path class="cls-3" d="M524,279.83a.1.1,0,0,1-.09,0,.11.11,0,0,1,0-.11l7.39-32.13a.11.11,0,0,1,.08-.09.1.1,0,0,1,.12,0l29.9,28.85a.17.17,0,0,1,0,.14.15.15,0,0,1-.11.08L524,279.83Zm7.46-32-7.3,31.75L561,276.33Z"/></g><g id="triangle36-47" data-name="triangle36"><path class="cls-3" d="M531.38,247.7a.1.1,0,0,1-.09,0,.11.11,0,0,1,0-.14L545.86,219a.09.09,0,0,1,.08-.06.12.12,0,0,1,.1,0l16.36,12.58a.12.12,0,0,1,0,.11.11.11,0,0,1-.06.1l-31,15.93ZM546,219.26l-14.35,28,30.43-15.66Z"/></g><g id="triangle36-48" data-name="triangle36"><path class="cls-3" d="M561.27,276.56a.12.12,0,0,1-.09,0l-29.89-28.85a.14.14,0,0,1,0-.12.11.11,0,0,1,.08-.09l42.75-12.78a.13.13,0,0,1,.12,0,.13.13,0,0,1,0,.13l-12.85,41.63a.12.12,0,0,1-.09.08Zm-29.65-28.93,29.59,28.57L573.94,235Z"/></g><g id="triangle36-49" data-name="triangle36"><path class="cls-3" d="M531.38,247.7a.13.13,0,0,1-.06-.24l30.94-15.92a.1.1,0,0,1,.09,0l11.81,3.15a.13.13,0,0,1,.09.12.12.12,0,0,1-.09.12L531.41,247.7Zm31-15.92-29.7,15.29,41-12.26Z"/></g><g id="triangle36-50" data-name="triangle36"><path class="cls-3" d="M346.78,263.59a.14.14,0,0,1-.12-.09.12.12,0,0,1,.06-.15l35.4-20.73a.14.14,0,0,1,.09,0,.12.12,0,0,1,.08.06l7.32,13a.11.11,0,0,1,0,.11.1.1,0,0,1-.09.07l-42.72,7.7Zm35.35-20.69-34.68,20.31,41.86-7.54Z"/></g><g id="triangle36-51" data-name="triangle36"><path class="cls-3" d="M389.5,255.88h0a.11.11,0,0,1-.1-.06l-7.32-13a.11.11,0,0,1,0-.11.11.11,0,0,1,.09-.07L404,238.27a.12.12,0,0,1,.13,0,.12.12,0,0,1,0,.15L389.6,255.84A.1.1,0,0,1,389.5,255.88Zm-7.13-13.06,7.15,12.72,14.19-17Z"/></g><g id="triangle36-52" data-name="triangle36"><path class="cls-3" d="M451.34,168.1h0a.13.13,0,0,1-.09-.15l6.87-26.44a.12.12,0,0,1,.15-.09.11.11,0,0,1,.09.15L451.47,168A.12.12,0,0,1,451.34,168.1Z"/></g><g id="triangle36-53" data-name="triangle36"><path class="cls-3" d="M451.34,168.1a.1.1,0,0,1-.07,0,.13.13,0,0,1,0-.13l6.87-26.44a.1.1,0,0,1,.06-.08.11.11,0,0,1,.1,0l28.84,8.68a.13.13,0,0,1,.09.11.11.11,0,0,1-.07.12L451.4,168.09A.07.07,0,0,1,451.34,168.1Zm7-26.41-6.77,26.06,35.19-17.5Z"/></g><g id="triangle36-54" data-name="triangle36"><path class="cls-3" d="M461.51,201.69a.12.12,0,0,1-.11-.09L451.23,168a.12.12,0,0,1,0-.14.14.14,0,0,1,.15,0l41.87,29.91a.13.13,0,0,1,0,.13.12.12,0,0,1-.11.09l-31.7,3.68Zm-9.94-33.4,10,33.14,31.28-3.63Z"/></g><g id="triangle36-55" data-name="triangle36"><path class="cls-3" d="M493.22,198a.12.12,0,0,1-.08,0l-41.87-29.91a.14.14,0,0,1,0-.11.12.12,0,0,1,.07-.1L487,150.11a.13.13,0,0,1,.12,0,.13.13,0,0,1,.06.1l6.16,47.66a.14.14,0,0,1-.06.13Zm-41.63-30,41.47,29.62L487,150.41Z"/></g><g id="triangle36-56" data-name="triangle36"><path class="cls-3" d="M439.73,225.21a.18.18,0,0,1-.1,0,.14.14,0,0,1,0-.17l21.79-23.52a.13.13,0,0,1,.13,0,.15.15,0,0,1,.09.1l1.28,6.19a.13.13,0,0,1-.05.13L439.8,225.18A.11.11,0,0,1,439.73,225.21Zm21.71-23.38-20.68,22.32,21.9-16.45Z"/></g><g id="triangle36-57" data-name="triangle36"><path class="cls-3" d="M439.73,225.21a.13.13,0,0,1-.12-.08.14.14,0,0,1,0-.15l23.07-17.32a.11.11,0,0,1,.15,0l14.56,11a.12.12,0,0,1,0,.13.12.12,0,0,1-.1.09l-37.62,6.37Zm23.07-17.3-22.59,17L477,218.64Z"/></g><g id="triangle36-58" data-name="triangle36"><path class="cls-3" d="M475.18,258.18a.09.09,0,0,1-.08,0l-35.46-33a.13.13,0,0,1,0-.13.12.12,0,0,1,.1-.09l37.62-6.36a.09.09,0,0,1,.1,0,.12.12,0,0,1,.05.1l-2.17,39.33a.15.15,0,0,1-.08.11Zm-35.18-33,35.07,32.62,2.15-38.91Z"/></g><g id="triangle36-59" data-name="triangle36"><path class="cls-3" d="M589.35,191.61l-43.18,27.18,13.94-52.68,29.31,12.38v-.27l-29.34-12.4H560a.16.16,0,0,0-.06.08L545.85,219a.11.11,0,0,0,0,.13.12.12,0,0,0,.08,0,.07.07,0,0,0,.06,0l43.32-27.26Z"/></g><g id="triangle36-60" data-name="triangle36"><path class="cls-3" d="M589.24,214.31l-42.75,4.58,42.86-27v-.29L545.9,219a.12.12,0,0,0,0,.15.13.13,0,0,0,.12.08h0l43.25-4.63Z"/></g><g id="triangle36-61" data-name="triangle36"><path class="cls-3" d="M589.42,178.22,560.75,166.1l28.72,1.7v-.25L560,165.81a.12.12,0,0,0-.13.1.11.11,0,0,0,.07.14l29.44,12.44Z"/></g><g id="triangle36-62" data-name="triangle36"><path class="cls-3" d="M389.5,255.88a.1.1,0,0,1-.1,0,.12.12,0,0,1,0-.15l14.53-17.37a.12.12,0,0,1,.1-.05l28.72-.1h0a.14.14,0,0,1,.12.1.12.12,0,0,1-.08.14l-43.26,17.48Zm14.59-17.37-14.17,17,42.2-17.05Z"/></g><g id="triangle36-63" data-name="triangle36"><path class="cls-3" d="M424.49,284.27l-.08,0-35-28.39a.13.13,0,0,1,0-.12.12.12,0,0,1,.07-.1l43.27-17.47a.13.13,0,0,1,.12,0,.11.11,0,0,1,.05.12l-8.28,45.86a.16.16,0,0,1-.08.1ZM389.74,255.8l34.66,28.12,8.2-45.43Z"/></g><g id="triangle36-64" data-name="triangle36"><path class="cls-3" d="M404,238.51a.13.13,0,0,1-.13-.1.13.13,0,0,1,.08-.14L439.68,225a.12.12,0,0,1,.14,0,.14.14,0,0,1,0,.14l-7,13.21a.11.11,0,0,1-.11.06l-28.72.1Zm35.42-13.19-34.73,12.94,28-.1Z"/></g><g id="triangle36-65" data-name="triangle36"><path class="cls-3" d="M424.49,284.27a.11.11,0,0,1-.08,0,.15.15,0,0,1-.05-.12l8.28-45.86a.11.11,0,0,1,.07-.09.14.14,0,0,1,.11,0l42.41,19.77a.13.13,0,0,1,.08.11.12.12,0,0,1-.07.11l-50.7,26.1Zm8.37-45.8-8.21,45.45,50.25-25.86Z"/></g><g id="triangle36-66" data-name="triangle36"><path class="cls-3" d="M475.18,258.18h-.05L432.71,238.4a.11.11,0,0,1-.06-.07.17.17,0,0,1,0-.1l7-13.2a.11.11,0,0,1,.09-.07.13.13,0,0,1,.1,0l35.46,33a.12.12,0,0,1,0,.16A.11.11,0,0,1,475.18,258.18Zm-42.24-20,41.58,19.38-34.76-32.32Z"/></g><g id="triangle36-67" data-name="triangle36"><path class="cls-3" d="M589.1,240.25l-14.68-5.47,14.75-8.47V226l-15.12,8.67a.14.14,0,0,0-.06.12.12.12,0,0,0,.08.11l15,5.59Z"/></g><g id="triangle36-68" data-name="triangle36"><path class="cls-3" d="M458.21,141.66a.12.12,0,0,1-.1,0,.13.13,0,0,1,0-.18L487,122.15a.13.13,0,0,1,.17,0,.13.13,0,0,1,0,.17l-28.83,19.28A.1.1,0,0,1,458.21,141.66Z"/></g><g id="triangle36-69" data-name="triangle36"><path class="cls-3" d="M487.06,150.35h0l-28.85-8.68a.13.13,0,0,1-.08-.1.13.13,0,0,1,.05-.13L487,122.15a.15.15,0,0,1,.13,0,.11.11,0,0,1,.06.11l0,28a.12.12,0,0,1-.05.1A.11.11,0,0,1,487.06,150.35Zm-28.56-8.86,28.43,8.56,0-27.56Z"/></g><g id="triangle36-70" data-name="triangle36"><path class="cls-3" d="M487.06,150.35l-.07,0a.14.14,0,0,1-.06-.11l0-28a.13.13,0,0,1,.06-.11.13.13,0,0,1,.12,0l28.66,15.12a.11.11,0,0,1,.06.11.12.12,0,0,1-.07.11l-28.63,12.85Zm.1-27.88,0,27.56,28.22-12.66Z"/></g><g id="triangle36-71" data-name="triangle36"><path class="cls-3" d="M515.69,137.5h-.06L487,122.37a.12.12,0,0,1-.06-.15l15-41.62a.12.12,0,0,1,.12-.09.13.13,0,0,1,.11.1l13.67,56.74a.12.12,0,0,1,0,.12A.11.11,0,0,1,515.69,137.5Zm-28.5-15.3,28.31,14.94L502,81.07Z"/></g><g id="triangle36-72" data-name="triangle36"><path class="cls-3" d="M589,257.55l-27.52,18.58,12.68-41.06L589,254.19v-.41l-14.81-19.05a.11.11,0,0,0-.12,0,.15.15,0,0,0-.1.09L561.15,276.4a.11.11,0,0,0,.05.13.09.09,0,0,0,.07,0l.07,0L589,257.86Z"/></g><g id="triangle36-73" data-name="triangle36"><path class="cls-3" d="M588.88,283.16l-27.31-6.78L589,257.86v-.31L561.2,276.33a.13.13,0,0,0-.05.13.12.12,0,0,0,.09.09l27.64,6.87Z"/></g><g id="triangle36-74" data-name="triangle36"><path class="cls-3" d="M589,253.78l-14.54-18.71,14.61,5.44v-.26l-14.93-5.56a.13.13,0,0,0-.15,0,.14.14,0,0,0,0,.15l15,19.31Z"/></g><path class="cls-3" d="M568.12,60.5a1.29,1.29,0,0,0-1.31,1.29,1.3,1.3,0,1,0,2.6,0A1.29,1.29,0,0,0,568.12,60.5Z"/><path class="cls-4" d="M568.12,60.5a1.29,1.29,0,0,1,1.29,1.3,1.3,1.3,0,1,1-1.29-1.3m0-.5a1.8,1.8,0,1,0,1.79,1.81A1.81,1.81,0,0,0,568.12,60Z"/><path class="cls-3" d="M363.8,273a.8.8,0,0,0-.8.8.79.79,0,0,0,.8.81.81.81,0,0,0,0-1.61Z"/><path class="cls-4" d="M363.8,273a.81.81,0,0,1,0,1.61.79.79,0,0,1-.8-.81.8.8,0,0,1,.8-.8m0-.5a1.31,1.31,0,1,0,1.29,1.31,1.31,1.31,0,0,0-1.29-1.31Z"/><path class="cls-3" d="M378.86,282.31a1.11,1.11,0,1,0,1.11,1.12A1.12,1.12,0,0,0,378.86,282.31Z"/><path class="cls-4" d="M378.86,282.31a1.11,1.11,0,1,1-1.12,1.11,1.12,1.12,0,0,1,1.12-1.11m0-.5a1.61,1.61,0,1,0,1.6,1.62,1.62,1.62,0,0,0-1.6-1.62Z"/><circle class="cls-3" cx="519.92" cy="175.88" r="1.65"/><path class="cls-4" d="M519.93,174.22a1.66,1.66,0,1,1,0,3.31,1.66,1.66,0,0,1,0-3.31m0-.5a2.16,2.16,0,1,0,2.15,2.17,2.17,2.17,0,0,0-2.15-2.17Z"/><path class="cls-3" d="M542.51,166.09a.7.7,0,0,0-.7-.71.71.71,0,0,0-.71.71.71.71,0,1,0,1.41,0Z"/><path class="cls-4" d="M541.81,165.38a.7.7,0,0,1,.7.71.71.71,0,1,1-.7-.71m0-.5a1.21,1.21,0,1,0,1.2,1.22,1.21,1.21,0,0,0-1.2-1.22Z"/><path class="cls-3" d="M559.94,150.37a1.63,1.63,0,1,0-1.62-1.64A1.63,1.63,0,0,0,559.94,150.37Z"/><path class="cls-4" d="M560,147.11a1.63,1.63,0,1,1-1.64,1.62,1.62,1.62,0,0,1,1.64-1.62m0-.5a2.13,2.13,0,1,0,2.12,2.14,2.13,2.13,0,0,0-2.12-2.14Z"/><path class="cls-3" d="M560.88,69.18a1,1,0,1,0-2,0,1,1,0,1,0,2,0Z"/><path class="cls-4" d="M559.87,68.16a1,1,0,0,1,0,2,1,1,0,0,1,0-2m0-.5a1.52,1.52,0,1,0,1.51,1.53,1.52,1.52,0,0,0-1.51-1.53Z"/><path class="cls-3" d="M485.91,214.69a1.48,1.48,0,1,0,1.46,1.48A1.47,1.47,0,0,0,485.91,214.69Z"/><path class="cls-4" d="M485.91,214.69a1.48,1.48,0,1,1-1.48,1.47,1.47,1.47,0,0,1,1.48-1.47m0-.5a2,2,0,1,0,2,2,2,2,0,0,0-2-2Z"/><path class="cls-3" d="M508.43,272.92a1.27,1.27,0,1,0,0,2.53,1.28,1.28,0,0,0,1.27-1.26A1.26,1.26,0,0,0,508.43,272.92Z"/><path class="cls-4" d="M508.43,272.92a1.26,1.26,0,0,1,1.26,1.27,1.28,1.28,0,0,1-1.27,1.26,1.27,1.27,0,1,1,0-2.53m0-.5a1.77,1.77,0,1,0,1.76,1.77,1.76,1.76,0,0,0-1.76-1.77Z"/><path class="cls-3" d="M524,278.07a1.63,1.63,0,0,0-1.65,1.63,1.64,1.64,0,1,0,1.65-1.63Z"/><path class="cls-4" d="M524,278.07a1.64,1.64,0,1,1-1.65,1.63,1.64,1.64,0,0,1,1.65-1.63m0-.5a2.14,2.14,0,1,0,2.13,2.15,2.14,2.14,0,0,0-2.13-2.15Z"/><path class="cls-3" d="M531.38,246.66a.92.92,0,1,0,.91.92A.91.91,0,0,0,531.38,246.66Z"/><path class="cls-4" d="M531.38,246.66a.92.92,0,1,1,0,1.83.92.92,0,0,1,0-1.83m0-.5a1.42,1.42,0,1,0,1.41,1.42,1.41,1.41,0,0,0-1.41-1.42Z"/><path class="cls-3" d="M562.33,229.87a1.78,1.78,0,1,0,1.77,1.79A1.79,1.79,0,0,0,562.33,229.87Z"/><path class="cls-4" d="M562.33,229.87a1.78,1.78,0,1,1-1.79,1.77,1.79,1.79,0,0,1,1.79-1.77m0-.5a2.28,2.28,0,1,0,2.27,2.29,2.29,2.29,0,0,0-2.27-2.29Z"/><path class="cls-3" d="M346.78,262.73a.73.73,0,1,0,.73.73A.73.73,0,0,0,346.78,262.73Z"/><path class="cls-4" d="M346.78,262.73a.73.73,0,1,1-.73.73.73.73,0,0,1,.73-.73m0-.5a1.23,1.23,0,1,0,1.22,1.24,1.24,1.24,0,0,0-1.22-1.24Z"/><path class="cls-3" d="M382.19,241.55a1.18,1.18,0,1,0,1.17,1.19A1.18,1.18,0,0,0,382.19,241.55Z"/><path class="cls-4" d="M382.19,241.55a1.18,1.18,0,1,1-1.19,1.18,1.17,1.17,0,0,1,1.19-1.18m0-.5a1.68,1.68,0,1,0,1.67,1.69,1.68,1.68,0,0,0-1.67-1.69Z"/><path class="cls-3" d="M451.35,167.27a.7.7,0,0,0-.72.71.71.71,0,0,0,.71.71.7.7,0,0,0,.72-.71A.71.71,0,0,0,451.35,167.27Z"/><path class="cls-4" d="M451.35,167.27a.71.71,0,0,1,.71.71.7.7,0,0,1-.72.71.71.71,0,0,1-.71-.71.7.7,0,0,1,.72-.71m0-.5a1.21,1.21,0,1,0,1.21,1.22,1.21,1.21,0,0,0-1.21-1.22Z"/><path class="cls-3" d="M493.23,196.26a1.63,1.63,0,1,0,1.61,1.64A1.64,1.64,0,0,0,493.23,196.26Z"/><path class="cls-4" d="M493.23,196.26a1.63,1.63,0,1,1-1.64,1.62,1.63,1.63,0,0,1,1.64-1.62m0-.5a2.14,2.14,0,0,0-2.14,2.12,2.13,2.13,0,1,0,2.14-2.12Z"/><path class="cls-3" d="M461.51,202.37a.81.81,0,0,0,.82-.8.82.82,0,0,0-1.63,0A.81.81,0,0,0,461.51,202.37Z"/><path class="cls-4" d="M461.52,200.75a.82.82,0,0,1,.81.82.82.82,0,0,1-1.63,0,.82.82,0,0,1,.82-.81m0-.5a1.31,1.31,0,1,0,1.31,1.32,1.32,1.32,0,0,0-1.31-1.32Z"/><path class="cls-3" d="M462.8,206.84a.92.92,0,0,0,0,1.83.92.92,0,0,0,0-1.83Z"/><path class="cls-4" d="M462.8,206.84a.92.92,0,0,1,0,1.83.92.92,0,0,1,0-1.83m0-.5a1.42,1.42,0,1,0,1.41,1.42,1.42,1.42,0,0,0-1.41-1.42Z"/><path class="cls-3" d="M477.36,218a.72.72,0,1,0,.71.72A.72.72,0,0,0,477.36,218Z"/><path class="cls-4" d="M477.36,218a.72.72,0,0,1,0,1.44.72.72,0,1,1,0-1.44m0-.5a1.22,1.22,0,1,0,0,2.44,1.22,1.22,0,0,0,0-2.44Z"/><path class="cls-3" d="M546,217.82a1.25,1.25,0,0,0,0,2.5,1.25,1.25,0,1,0,0-2.5Z"/><path class="cls-4" d="M546,217.82a1.25,1.25,0,1,1-1.25,1.24,1.26,1.26,0,0,1,1.25-1.24m0-.5a1.75,1.75,0,1,0,1.74,1.76,1.76,1.76,0,0,0-1.74-1.76Z"/><path class="cls-3" d="M560,164.5a1.44,1.44,0,1,0,0,2.87,1.44,1.44,0,0,0,0-2.87Z"/><path class="cls-4" d="M560,164.5a1.44,1.44,0,1,1-1.45,1.43A1.45,1.45,0,0,1,560,164.5m0-.5a1.94,1.94,0,1,0,0,3.87,1.94,1.94,0,0,0,0-3.87Z"/><path class="cls-3" d="M389.51,254.2a1.56,1.56,0,1,0,1.55,1.57A1.55,1.55,0,0,0,389.51,254.2Z"/><path class="cls-4" d="M389.51,254.2a1.56,1.56,0,1,1-1.56,1.55,1.57,1.57,0,0,1,1.56-1.55m0-.5a2.06,2.06,0,1,0,2.05,2.07,2.06,2.06,0,0,0-2.05-2.07Z"/><path class="cls-3" d="M404.93,238.39a.9.9,0,1,0-.9.89A.88.88,0,0,0,404.93,238.39Z"/><path class="cls-4" d="M404,237.49a.89.89,0,0,1,.89.9.88.88,0,0,1-.9.89.9.9,0,0,1,0-1.79m0-.5a1.4,1.4,0,1,0,1.39,1.41A1.41,1.41,0,0,0,404,237Z"/><path class="cls-3" d="M424.49,282.74a1.41,1.41,0,1,0,1.4,1.42A1.41,1.41,0,0,0,424.49,282.74Z"/><path class="cls-4" d="M424.49,282.74a1.41,1.41,0,1,1-1.41,1.4,1.41,1.41,0,0,1,1.41-1.4m0-.5a1.91,1.91,0,1,0,1.89,1.92,1.91,1.91,0,0,0-1.89-1.92Z"/><path class="cls-3" d="M432.77,236.82a1.47,1.47,0,1,0,1.47,1.48A1.47,1.47,0,0,0,432.77,236.82Z"/><path class="cls-4" d="M432.77,236.82a1.47,1.47,0,1,1-1.48,1.46,1.47,1.47,0,0,1,1.48-1.46m0-.5a2,2,0,1,0,2,2,2,2,0,0,0-2-2Z"/><path class="cls-3" d="M475.19,256.77a1.29,1.29,0,1,0,1.27,1.29A1.27,1.27,0,0,0,475.19,256.77Z"/><path class="cls-4" d="M475.19,256.77a1.27,1.27,0,0,1,1.27,1.29,1.28,1.28,0,1,1-1.27-1.29m0-.5a1.79,1.79,0,1,0,1.77,1.79,1.78,1.78,0,0,0-1.77-1.79Z"/><path class="cls-3" d="M439.73,224.14a.95.95,0,1,0,.94,1A1,1,0,0,0,439.73,224.14Z"/><path class="cls-4" d="M439.73,224.14a.95.95,0,1,1-1,.94.95.95,0,0,1,1-.94m0-.5a1.45,1.45,0,1,0,1.44,1.45,1.46,1.46,0,0,0-1.44-1.45Z"/><path class="cls-3" d="M458.22,140.41a1.13,1.13,0,1,0,0,2.25,1.13,1.13,0,1,0,0-2.25Z"/><path class="cls-4" d="M458.22,140.41a1.13,1.13,0,1,1-1.14,1.12,1.13,1.13,0,0,1,1.14-1.12m0-.5a1.63,1.63,0,1,0,1.62,1.64,1.64,1.64,0,0,0-1.62-1.64Z"/><path class="cls-3" d="M487.06,149.38a.84.84,0,1,0,.84.85A.85.85,0,0,0,487.06,149.38Z"/><path class="cls-4" d="M487.06,149.38a.85.85,0,0,1,.84.85.85.85,0,0,1-.85.83.84.84,0,0,1,0-1.68m0-.5a1.34,1.34,0,0,0,0,2.68,1.34,1.34,0,0,0,0-2.68Z"/><path class="cls-3" d="M490.07,75.53a1.34,1.34,0,1,0,1.32,1.34A1.33,1.33,0,0,0,490.07,75.53Z"/><path class="cls-4" d="M490.07,75.53a1.34,1.34,0,1,1-1.34,1.33,1.34,1.34,0,0,1,1.34-1.33m0-.49a1.83,1.83,0,1,0,0,3.66,1.83,1.83,0,0,0,0-3.66Z"/><path class="cls-3" d="M487,124.06a1.8,1.8,0,1,0-1.8-1.81A1.81,1.81,0,0,0,487,124.06Z"/><path class="cls-4" d="M487.05,120.46a1.8,1.8,0,1,1-1.82,1.79,1.8,1.8,0,0,1,1.82-1.79m0-.5a2.3,2.3,0,1,0,2.29,2.31,2.31,2.31,0,0,0-2.29-2.31Z"/><path class="cls-3" d="M515.69,136.46a.9.9,0,0,0-.92.91.92.92,0,0,0,.91.93.93.93,0,0,0,.93-.92A.92.92,0,0,0,515.69,136.46Z"/><path class="cls-4" d="M515.69,136.46a.92.92,0,0,1,.92.92.93.93,0,0,1-.93.92.92.92,0,0,1-.91-.93.9.9,0,0,1,.92-.91m0-.5a1.41,1.41,0,0,0-1.42,1.41,1.42,1.42,0,1,0,1.42-1.41Z"/><path class="cls-3" d="M502,79.62a1,1,0,1,0,0,2,1,1,0,1,0,0-2Z"/><path class="cls-4" d="M502,79.62a1,1,0,1,1-1,1,1,1,0,0,1,1-1m0-.5a1.52,1.52,0,1,0,1.52,1.53A1.52,1.52,0,0,0,502,79.12Z"/><path class="cls-3" d="M561.28,275.48a1,1,0,0,0,0,1.91,1,1,0,1,0,0-1.91Z"/><path class="cls-4" d="M561.28,275.48a1,1,0,1,1,0,1.91,1,1,0,0,1,0-1.91m0-.5a1.46,1.46,0,0,0,0,2.91,1.46,1.46,0,1,0,0-2.91Z"/><circle class="cls-3" cx="574.12" cy="234.8" r="1.19"/><path class="cls-4" d="M574.13,233.61a1.19,1.19,0,1,1-1.2,1.19,1.2,1.2,0,0,1,1.2-1.19m0-.5a1.69,1.69,0,0,0,0,3.38,1.69,1.69,0,0,0,0-3.38Z"/><g id="triangle36-75" data-name="triangle36"><path class="cls-3" d="M123,314.38l22.42-25.64,5.33,9.39L130.44,316l.3.07L151,298.25a.12.12,0,0,0,0-.16l-5.46-9.62a.14.14,0,0,0-.1-.07.16.16,0,0,0-.11.05L122.7,314.32Z"/></g><g id="triangle36-76" data-name="triangle36"><path class="cls-3" d="M101,309.49l44-20.6L122.7,314.32l.28.06,22.54-25.77a.12.12,0,0,0-.15-.19l-44.79,21Z"/></g><g id="triangle36-77" data-name="triangle36"><path class="cls-3" d="M43,296.6l7.83-28,8.92,25.95-5.48,4.58.31.06,5.4-4.5a.13.13,0,0,0,0-.14L51,268.12a.11.11,0,0,0-.12-.08.12.12,0,0,0-.11.09l-7.95,28.41Z"/></g><g id="triangle36-78" data-name="triangle36"><path class="cls-3" d="M30.47,164.25a.09.09,0,0,1,0-.06.15.15,0,0,1,.09,0l6.33.06a.15.15,0,0,1,.09,0,.17.17,0,0,1,0,.1l-3.13,31.76a.12.12,0,0,1-.13.11.12.12,0,0,1-.12-.11l-3.19-31.82Zm6.31.21-6.05-.06,3.05,30.44Z"/></g><g id="triangle36-79" data-name="triangle36"><path class="cls-3" d="M1.77,243.13s0,0,0,0L33.68,196a.13.13,0,0,1,.11-.06.12.12,0,0,1,.1.07l15.85,30.77a.09.09,0,0,1,0,.1.12.12,0,0,1-.07.07L1.94,243.27a.12.12,0,0,1-.14,0A.13.13,0,0,1,1.77,243.13Zm32-46.79L2.21,242.92l47.24-16.13Z"/></g><g id="triangle36-80" data-name="triangle36"><path class="cls-3" d="M1.77,243.13a.12.12,0,0,1,.09-.09l47.73-16.29a.09.09,0,0,1,.1,0,.1.1,0,0,1,.06.08l4.92,23.46a.11.11,0,0,1,0,.11.15.15,0,0,1-.11,0L1.88,243.28a.14.14,0,0,1-.11-.11ZM49.53,227,2.44,243.1l52,7.08Z"/></g><g id="triangle36-81" data-name="triangle36"><path class="cls-3" d="M1.77,243.13h0a.11.11,0,0,1,.13-.09l52.66,7.17a.14.14,0,0,1,.08.05.12.12,0,0,1,0,.1L51,268.19a.15.15,0,0,1-.07.09.2.2,0,0,1-.11,0l-48.94-25A.14.14,0,0,1,1.77,243.13Zm52.63,7.3L2.61,243.38,50.75,268Z"/></g><g id="triangle36-82" data-name="triangle36"><path class="cls-3" d="M-9.38,285l-4.35-28.43L1.74,243.45l-4.61,42.94.24.06L2,243.17A.15.15,0,0,0,2,243a.14.14,0,0,0-.14,0l-15.76,13.31a.16.16,0,0,0,0,.07v.05l4.35,28.4Z"/></g><g id="triangle36-83" data-name="triangle36"><path class="cls-3" d="M54.43,250.3a.13.13,0,0,1,.1-.1.14.14,0,0,1,.13.06l13.11,21.41a.14.14,0,0,1,0,.14.13.13,0,0,1-.13.05l-16.82-3.57a.13.13,0,0,1-.1-.15l3.72-17.84Zm13,21.26-12.79-20.9L51,268.07Z"/></g><g id="triangle36-84" data-name="triangle36"><path class="cls-3" d="M75.54,303.83,67.83,271.9,145,288.57,100.58,309.4l.39.09,44.51-20.85a.11.11,0,0,0,.07-.13.12.12,0,0,0-.1-.1L67.69,271.62a.12.12,0,0,0-.12,0,.09.09,0,0,0,0,.06.06.06,0,0,0,0,.06l7.73,32Z"/></g><g id="triangle36-85" data-name="triangle36"><path class="cls-3" d="M50.71,268.14l0-.06a.14.14,0,0,1,.12,0l16.83,3.58s.06,0,.08.06a.12.12,0,0,1,0,.1L60,294.61a.13.13,0,0,1-.12.08.12.12,0,0,1-.12-.08l-9.08-26.4A.2.2,0,0,1,50.71,268.14Zm16.79,3.69L51,268.33l8.89,25.85Z"/></g><g id="triangle36-86" data-name="triangle36"><path class="cls-3" d="M65.51,301.6l-5.45-7.05,7.58-22.36,7.63,31.58.27.06-7.76-32.12a.14.14,0,0,0-.11-.1.14.14,0,0,0-.13.09L59.8,294.53h0a.14.14,0,0,0,0,.11l5.31,6.87Z"/></g><g id="triangle36-87" data-name="triangle36"><path class="cls-3" d="M16.67,176.15a.16.16,0,0,1,0-.07l13.8-11.9a.12.12,0,0,1,.16,0,.12.12,0,0,1,0,.16l-13.12,20.8a.14.14,0,0,1-.14.05.12.12,0,0,1-.09-.11l-.68-8.9ZM30,164.92,16.92,176.23l.65,8.45Z"/></g><g id="triangle36-88" data-name="triangle36"><path class="cls-3" d="M17.35,185l0,0,13.12-20.79a.11.11,0,0,1,.13-.06.16.16,0,0,1,.1.11l3.19,31.82a.13.13,0,0,1-.06.12.12.12,0,0,1-.14,0l-16.31-11A.13.13,0,0,1,17.35,185ZM30.5,164.65,17.64,185l16,10.81Z"/></g><g id="triangle36-89" data-name="triangle36"><path class="cls-3" d="M-21.31,165.68v0a.11.11,0,0,1,.15-.07l38,10.46a.14.14,0,0,1,.1.11l.68,8.9a.11.11,0,0,1-.06.11.1.1,0,0,1-.12,0l-38.66-19.36A.12.12,0,0,1-21.31,165.68Zm38,10.59L-20,166.17l37.32,18.69Z"/></g><g id="triangle36-90" data-name="triangle36"><path class="cls-3" d="M1.77,243.13h0L17.35,185a.14.14,0,0,1,.08-.09.11.11,0,0,1,.11,0l16.31,11a.1.1,0,0,1,0,.08.16.16,0,0,1,0,.1L2,243.23a.14.14,0,0,1-.16,0A.13.13,0,0,1,1.77,243.13Zm15.78-57.86L2.21,242.47l31.4-46.34Z"/></g><g id="triangle36-91" data-name="triangle36"><path class="cls-3" d="M33.66,196.07a.05.05,0,0,1,0,0,.13.13,0,0,1,.11-.06l47.89,4.09a.13.13,0,0,1,.11.09.11.11,0,0,1,0,.13L49.71,227a.2.2,0,0,1-.11,0,.14.14,0,0,1-.08-.07L33.67,196.15A.11.11,0,0,1,33.66,196.07Zm47.7,4.22-47.36-4,15.67,30.43Z"/></g><g id="triangle36-92" data-name="triangle36"><path class="cls-3" d="M49.51,226.84a.1.1,0,0,1,0-.07l32-26.68a.13.13,0,0,1,.12,0,.12.12,0,0,1,.08.09l6.48,30.7a.11.11,0,0,1,0,.11.1.1,0,0,1-.1,0l-38.52-4a.13.13,0,0,1-.11-.09A.06.06,0,0,1,49.51,226.84Zm32.08-26.42L49.94,226.77l38.05,4Z"/></g><g id="triangle36-93" data-name="triangle36"><path class="cls-3" d="M88,230.86v0a.11.11,0,0,1,.11-.07l58.34-1.32a.17.17,0,0,1,.1,0,.16.16,0,0,1,0,.09l-1.07,59a.11.11,0,0,1-.08.11.12.12,0,0,1-.13,0L88.06,231A.13.13,0,0,1,88,230.86Zm58.34-1.16L88.45,231l56.86,57.22Z"/></g><g id="triangle36-94" data-name="triangle36"><path class="cls-3" d="M49.51,226.84a.09.09,0,0,1,0-.06.12.12,0,0,1,.1,0l38.52,4a.11.11,0,0,1,.11.09.13.13,0,0,1-.06.14l-33.6,19.43a.14.14,0,0,1-.11,0,.13.13,0,0,1-.07-.09l-4.92-23.46A0,0,0,0,1,49.51,226.84ZM87.76,231l-38-4,4.85,23.12Z"/></g><g id="triangle36-95" data-name="triangle36"><path class="cls-3" d="M54.43,250.3h0a.11.11,0,0,1,.06-.07l33.6-19.44a.12.12,0,0,1,.17.17L67.77,271.79a.1.1,0,0,1-.1.07.12.12,0,0,1-.12-.06L54.44,250.39A.14.14,0,0,1,54.43,250.3Zm33.42-19.09L54.72,250.37l12.93,21.11Z"/></g><g id="triangle36-96" data-name="triangle36"><path class="cls-3" d="M67.54,271.71a0,0,0,0,1,0,0L88,230.83a.11.11,0,0,1,.09-.06.11.11,0,0,1,.11,0l57.28,57.64a.16.16,0,0,1,0,.15.13.13,0,0,1-.14.06L67.63,271.86a.11.11,0,0,1-.08-.07A.11.11,0,0,1,67.54,271.71ZM88.19,231.1,67.84,271.65,145,288.32Z"/></g><g id="triangle36-97" data-name="triangle36"><path class="cls-3" d="M-21.31,165.68a.16.16,0,0,1,.06-.08.13.13,0,0,1,.12,0L17.53,185a.13.13,0,0,1,.07.09.15.15,0,0,1,0,.11l-40.34,37.78a.14.14,0,0,1-.14,0,.11.11,0,0,1-.07-.11l1.68-57.14ZM17.26,185.1l-38.33-19.19-1.66,56.64Z"/></g><g id="triangle36-98" data-name="triangle36"><path class="cls-3" d="M-23,222.82l0-.06L17.39,185a.12.12,0,0,1,.15,0,.13.13,0,0,1,.06.14L2,243.19a.14.14,0,0,1-.09.08.09.09,0,0,1-.11,0L-22.95,223a.13.13,0,0,1,0-.1Zm40.23-37.36-39.92,37.38,24.51,20.1Z"/></g><g id="triangle36-99" data-name="triangle36"><path class="cls-3" d="M-23,222.82a.22.22,0,0,1,0-.08.14.14,0,0,1,.15,0L2,243.06a.12.12,0,0,1,.05.09.15.15,0,0,1,0,.1l-15.77,13.31a.11.11,0,0,1-.11,0,.16.16,0,0,1-.09-.09l-9-33.62ZM1.7,243.16l-24.35-20,8.85,33.05Z"/></g><g id="triangle36-100" data-name="triangle36"><path class="cls-3" d="M.64,39.06a.13.13,0,0,1,.1-.1A.13.13,0,0,1,.88,39L13.63,78a.1.1,0,0,1,0,.09.11.11,0,0,1-.07.06L-.74,82.58a.09.09,0,0,1-.11,0,.12.12,0,0,1-.05-.1L.64,39.08ZM13.35,78,.86,39.79l-1.5,42.5Z"/></g><g id="triangle36-101" data-name="triangle36"><path class="cls-3" d="M-.9,82.44h0a.11.11,0,0,1,.08-.08L13.47,78a.11.11,0,0,1,.12,0,.12.12,0,0,1,.05.1l-.4,22.28a.11.11,0,0,1-.08.11.12.12,0,0,1-.14,0L-.87,82.54A.13.13,0,0,1-.9,82.44Zm14.28-4.2L-.56,82.53,13,100Z"/></g><g id="triangle36-102" data-name="triangle36"><path class="cls-3" d="M71.77,161.49s0,0,0,0a.13.13,0,0,1,.17-.05l24.38,12.32a.12.12,0,0,1,.06.16.12.12,0,0,1-.17.06L71.84,161.63A.12.12,0,0,1,71.77,161.49Z"/></g><g id="triangle36-103" data-name="triangle36"><path class="cls-3" d="M71.77,161.49a.25.25,0,0,1,0-.07.14.14,0,0,1,.14,0l24.38,12.32a.12.12,0,0,1,.07.07.17.17,0,0,1,0,.1L81.78,200.25a.12.12,0,0,1-.13.06.11.11,0,0,1-.1-.09l-9.78-38.67Zm24.33,12.4-24-12.13,9.63,38.09Z"/></g><g id="triangle36-104" data-name="triangle36"><path class="cls-3" d="M36.79,164.31a.15.15,0,0,1,.12-.1l35-2.81a.13.13,0,0,1,.13.07.12.12,0,0,1,0,.14L33.87,196.19a.14.14,0,0,1-.14,0,.12.12,0,0,1-.07-.13l3.13-31.76Zm34.75-2.64L37,164.45l-3.09,31.34Z"/></g><g id="triangle36-105" data-name="triangle36"><path class="cls-3" d="M33.66,196.07a.16.16,0,0,1,0-.07l38.11-34.57a.13.13,0,0,1,.12,0,.12.12,0,0,1,.08.09l9.78,38.67a.14.14,0,0,1,0,.11.12.12,0,0,1-.11,0l-47.89-4.09a.13.13,0,0,1-.11-.08Zm38.16-34.32L34.08,196l47.43,4.05Z"/></g><g id="triangle36-106" data-name="triangle36"><path class="cls-3" d="M18.43,138a.1.1,0,0,1,.06-.08.11.11,0,0,1,.16,0L37,164.27a.12.12,0,0,1-.11.19l-6.32-.06a.12.12,0,0,1-.11-.07l-12-26.22A.12.12,0,0,1,18.43,138Zm18.24,26.18-17.43-25,11.43,24.89Z"/></g><g id="triangle36-107" data-name="triangle36"><path class="cls-3" d="M18.43,138a.13.13,0,0,1,.1-.1.12.12,0,0,1,.13.07l12.05,26.22a.14.14,0,0,1,0,.15l-13.8,11.9a.12.12,0,0,1-.13,0,.12.12,0,0,1-.07-.12l1.76-38.12Zm12,26.21L18.65,138.57l-1.72,37.32Z"/></g><g id="triangle36-108" data-name="triangle36"><path class="cls-3" d="M-21.31,165.68a.12.12,0,0,1,0-.07L18.48,138a.11.11,0,0,1,.13,0,.12.12,0,0,1,.07.11l-1.76,38.12a.11.11,0,0,1-.05.09.11.11,0,0,1-.11,0l-38-10.46a.12.12,0,0,1-.09-.1ZM18.41,138.3-20.9,165.66,16.67,176Z"/></g><g id="triangle36-109" data-name="triangle36"><path class="cls-3" d="M19.52,291.37l-17.4-48,48.53,24.8-18.31,26,.26.06,18.34-26a.12.12,0,0,0,0-.1.13.13,0,0,0-.07-.09L2,243a.14.14,0,0,0-.14,0,.16.16,0,0,0,0,.07.2.2,0,0,0,0,.07l17.45,48.11Z"/></g><g id="triangle36-110" data-name="triangle36"><path class="cls-3" d="M-2.63,286.45,2,243.7l17.27,47.61.29.06L2,243.11a.12.12,0,0,0-.13-.08.14.14,0,0,0-.11.1h0l-4.64,43.25Z"/></g><g id="triangle36-111" data-name="triangle36"><path class="cls-3" d="M32.6,294.28l17.92-25.45-7.75,27.71.25.06L51,268.2a.13.13,0,0,0-.07-.15.14.14,0,0,0-.16,0L32.34,294.22Z"/></g><g id="triangle36-112" data-name="triangle36"><path class="cls-3" d="M-.9,82.44a.14.14,0,0,1,.08-.09.11.11,0,0,1,.14,0l13.9,17.89a.12.12,0,0,1,0,.1l-6,28.1h0a.13.13,0,0,1-.25,0l-7.9-46ZM13,100.38-.57,82.94l7.71,44.85Z"/></g><g id="triangle36-113" data-name="triangle36"><path class="cls-3" d="M-36.06,110.61s0-.06,0-.07L-.85,82.37a.11.11,0,0,1,.12,0,.12.12,0,0,1,.08.09l7.9,46a.12.12,0,0,1,0,.12.13.13,0,0,1-.12,0L-36,110.75a.13.13,0,0,1-.08-.1ZM-.86,82.7l-34.83,27.9L7,128.25Z"/></g><g id="triangle36-114" data-name="triangle36"><path class="cls-3" d="M13,100.33a.12.12,0,0,1,.12-.1.13.13,0,0,1,.12.11L18.67,138a.1.1,0,0,1-.06.12.12.12,0,0,1-.14,0L7,128.55a.15.15,0,0,1,0-.13l6-28.09Zm5.38,37.42L13.1,101.06,7.26,128.4Z"/></g><g id="triangle36-115" data-name="triangle36"><path class="cls-3" d="M-36.06,110.61a.16.16,0,0,1,0-.07.13.13,0,0,1,.13,0L7.17,128.34a.11.11,0,0,1,.08.08.11.11,0,0,1,0,.11l-28.31,37.25a.12.12,0,0,1-.12.05.12.12,0,0,1-.1-.09l-14.75-55.07Zm43,17.89-42.68-17.65,14.62,54.58Z"/></g><g id="triangle36-116" data-name="triangle36"><path class="cls-3" d="M-21.31,165.68a.17.17,0,0,1,0-.05L7,128.37a.12.12,0,0,1,.08,0,.12.12,0,0,1,.1,0L18.63,138a.12.12,0,0,1,.05.1.21.21,0,0,1-.06.1l-39.74,27.65a.12.12,0,0,1-.16,0A.14.14,0,0,1-21.31,165.68ZM7.15,128.63l-27.76,36.53,39-27.11Z"/></g><g id="triangle36-117" data-name="triangle36"><path class="cls-3" d="M96.15,173.81a.14.14,0,0,1,.08-.09.13.13,0,0,1,.16.07l12.73,32.26a.13.13,0,0,1-.07.16.11.11,0,0,1-.16-.07L96.16,173.88A.15.15,0,0,1,96.15,173.81Z"/></g><g id="triangle36-118" data-name="triangle36"><path class="cls-3" d="M81.55,200.16v0l14.61-26.35a.14.14,0,0,1,.11-.07.14.14,0,0,1,.11.08l12.73,32.26a.12.12,0,0,1,0,.13.14.14,0,0,1-.12,0l-27.34-5.91a.13.13,0,0,1-.09-.15Zm14.71-26-14.4,26,26.94,5.83Z"/></g><g id="triangle36-119" data-name="triangle36"><path class="cls-3" d="M81.55,200.16s0,0,0-.06a.13.13,0,0,1,.12,0L109,206a.12.12,0,0,1,.09.08.13.13,0,0,1,0,.12L88.25,231a.12.12,0,0,1-.13,0,.14.14,0,0,1-.09-.09l-6.48-30.71Zm27.22,6-26.94-5.83,6.39,30.26Z"/></g><g id="triangle36-120" data-name="triangle36"><path class="cls-3" d="M88,230.86s0,0,0-.05L108.91,206a.12.12,0,0,1,.16,0l37.49,23.48a.1.1,0,0,1,.06.13.14.14,0,0,1-.12.1L88.15,231a.13.13,0,0,1-.11-.08A.11.11,0,0,1,88,230.86Zm21-24.6-20.6,24.5,57.65-1.3Z"/></g><circle class="cls-3" cx="49.63" cy="226.86" r="1.65"/><path class="cls-4" d="M51.24,227.22a1.65,1.65,0,1,1-1.25-2,1.65,1.65,0,0,1,1.25,2m.49.11A2.15,2.15,0,1,0,49.16,229a2.16,2.16,0,0,0,2.57-1.64Z"/><path class="cls-3" d="M54.4,251a.71.71,0,1,0-.54-.85A.71.71,0,0,0,54.4,251Z"/><path class="cls-4" d="M55.24,250.48a.71.71,0,1,1-.54-.85.71.71,0,0,1,.54.85m.49.11a1.21,1.21,0,1,0-1.44.91,1.21,1.21,0,0,0,1.44-.91Z"/><path class="cls-3" d="M66.07,271.38A1.63,1.63,0,1,0,68,270.15,1.63,1.63,0,0,0,66.07,271.38Z"/><path class="cls-4" d="M69.25,272.09A1.63,1.63,0,1,1,68,270.15a1.63,1.63,0,0,1,1.24,1.94m.49.11a2.13,2.13,0,1,0-2.54,1.62,2.13,2.13,0,0,0,2.54-1.62Z"/><path class="cls-3" d="M145.21,289.52a1,1,0,1,0-.78-1.21A1,1,0,0,0,145.21,289.52Z"/><path class="cls-4" d="M146.42,288.75a1,1,0,1,1-.77-1.21,1,1,0,0,1,.77,1.21m.49.11a1.52,1.52,0,1,0-3-.66A1.51,1.51,0,0,0,145.1,290a1.53,1.53,0,0,0,1.81-1.15Z"/><path class="cls-3" d="M18.91,185.39a1.47,1.47,0,1,0-1.75,1.12A1.47,1.47,0,0,0,18.91,185.39Z"/><path class="cls-4" d="M18.91,185.39a1.47,1.47,0,1,1-1.12-1.76,1.47,1.47,0,0,1,1.12,1.76m.49.11A2,2,0,1,0,17.05,187a2,2,0,0,0,2.35-1.49Z"/><path class="cls-3" d="M1.48,39.24a.74.74,0,0,0-.56-.87A.73.73,0,0,0,.6,39.8.74.74,0,0,0,1.48,39.24Z"/><path class="cls-4" d="M1.48,39.24a.74.74,0,0,1-.88.56.73.73,0,0,1,.32-1.43.74.74,0,0,1,.56.87m.48.11A1.23,1.23,0,0,0,1,37.88a1.24,1.24,0,0,0-1.47.94,1.22,1.22,0,0,0,.93,1.46A1.22,1.22,0,0,0,2,39.35Z"/><path class="cls-3" d="M14.67,78.33a1.18,1.18,0,1,0-1.42.9A1.2,1.2,0,0,0,14.67,78.33Z"/><path class="cls-4" d="M14.67,78.33a1.2,1.2,0,0,1-1.42.9,1.18,1.18,0,1,1,1.42-.9m.48.11a1.68,1.68,0,1,0-2,1.28,1.69,1.69,0,0,0,2-1.28Z"/><path class="cls-3" d="M72.59,161.68a.72.72,0,1,0-.85.54A.73.73,0,0,0,72.59,161.68Z"/><path class="cls-4" d="M72.59,161.68a.72.72,0,1,1-.54-.86.72.72,0,0,1,.54.86m.49.1a1.21,1.21,0,0,0-.93-1.44,1.21,1.21,0,0,0-.52,2.36,1.21,1.21,0,0,0,1.45-.92Z"/><path class="cls-3" d="M35.37,196.45a1.63,1.63,0,1,0-1.94,1.23A1.63,1.63,0,0,0,35.37,196.45Z"/><path class="cls-4" d="M35.37,196.45a1.63,1.63,0,0,1-3.18-.71,1.63,1.63,0,0,1,3.18.71m.49.11a2.13,2.13,0,1,0-2.54,1.61,2.13,2.13,0,0,0,2.54-1.61Z"/><path class="cls-3" d="M36.12,164.16a.81.81,0,1,0,1-.62A.82.82,0,0,0,36.12,164.16Z"/><path class="cls-4" d="M37.71,164.51a.81.81,0,1,1-.62-1,.81.81,0,0,1,.62,1m.49.11a1.31,1.31,0,1,0-1.57,1,1.31,1.31,0,0,0,1.57-1Z"/><path class="cls-3" d="M31.49,164.47a.92.92,0,1,0-1.1.7A.91.91,0,0,0,31.49,164.47Z"/><path class="cls-4" d="M31.49,164.47a.92.92,0,1,1-.7-1.09.92.92,0,0,1,.7,1.09m.48.11a1.41,1.41,0,1,0-1.69,1.08A1.42,1.42,0,0,0,32,164.58Z"/><path class="cls-3" d="M17.49,176.33a.72.72,0,1,0-1.4-.31.72.72,0,0,0,1.4.31Z"/><path class="cls-4" d="M17.49,176.33a.72.72,0,0,1-1.4-.31.72.72,0,1,1,1.4.31m.49.11a1.22,1.22,0,1,0-1.45.92,1.21,1.21,0,0,0,1.45-.92Z"/><path class="cls-3" d="M3.11,243.43a1.25,1.25,0,1,0-1.49.94A1.24,1.24,0,0,0,3.11,243.43Z"/><path class="cls-4" d="M3.11,243.43a1.25,1.25,0,1,1-.94-1.49,1.24,1.24,0,0,1,.94,1.49m.49.1a1.75,1.75,0,1,0-2.08,1.33,1.74,1.74,0,0,0,2.08-1.33Z"/><path class="cls-3" d="M52.24,268.48a1.45,1.45,0,0,0-1.09-1.72,1.44,1.44,0,0,0-.63,2.81A1.45,1.45,0,0,0,52.24,268.48Z"/><path class="cls-4" d="M52.24,268.48a1.44,1.44,0,1,1-2.8-.63,1.43,1.43,0,0,1,1.71-1.09,1.45,1.45,0,0,1,1.09,1.72m.48.11a1.93,1.93,0,1,0-2.3,1.46,1.92,1.92,0,0,0,2.3-1.46Z"/><path class="cls-3" d="M.74,82.8A1.54,1.54,0,0,0-.44,81a1.55,1.55,0,0,0-1.85,1.18A1.54,1.54,0,0,0-1.11,84,1.54,1.54,0,0,0,.74,82.8Z"/><path class="cls-4" d="M.74,82.8A1.54,1.54,0,0,1-1.11,84a1.54,1.54,0,0,1-1.18-1.85A1.55,1.55,0,0,1-.44,81,1.54,1.54,0,0,1,.74,82.8m.49.11A2.05,2.05,0,0,0-.33,80.46,2.05,2.05,0,0,0-2.78,82a2,2,0,0,0,1.56,2.45,2,2,0,0,0,2.45-1.56Z"/><path class="cls-3" d="M12.93,101.23a.9.9,0,1,0-.68-1.07A.88.88,0,0,0,12.93,101.23Z"/><path class="cls-4" d="M14,100.55a.89.89,0,1,1-.68-1.07.88.88,0,0,1,.68,1.07m.49.11a1.39,1.39,0,1,0-1.66,1.06,1.4,1.4,0,0,0,1.66-1.06Z"/><path class="cls-3" d="M8.56,128.77a1.47,1.47,0,1,0-1.75,1.12A1.47,1.47,0,0,0,8.56,128.77Z"/><path class="cls-4" d="M8.56,128.77A1.47,1.47,0,1,1,7.44,127a1.47,1.47,0,0,1,1.12,1.76m.49.11a2,2,0,1,0-2.35,1.49,2,2,0,0,0,2.35-1.49Z"/><path class="cls-3" d="M19.47,138.26a.94.94,0,1,0-1.84-.41.94.94,0,0,0,1.84.41Z"/><path class="cls-4" d="M19.47,138.26a.94.94,0,0,1-1.84-.41.94.94,0,1,1,1.84.41m.49.11a1.44,1.44,0,1,0-1.72,1.09A1.44,1.44,0,0,0,20,138.37Z"/><path class="cls-3" d="M97.38,174.08a1.13,1.13,0,0,0-.86-1.34,1.13,1.13,0,0,0-.49,2.2A1.14,1.14,0,0,0,97.38,174.08Z"/><path class="cls-4" d="M97.38,174.08a1.14,1.14,0,0,1-1.35.86,1.13,1.13,0,1,1,1.35-.86m.48.11a1.62,1.62,0,1,0-1.94,1.24,1.62,1.62,0,0,0,1.94-1.24Z"/><path class="cls-3" d="M82.49,200.37a.84.84,0,1,0-1,.64A.84.84,0,0,0,82.49,200.37Z"/><path class="cls-4" d="M82.49,200.37a.84.84,0,1,1-.64-1,.84.84,0,0,1,.64,1m.49.11a1.34,1.34,0,1,0-2.61-.58,1.34,1.34,0,0,0,2.61.58Z"/><path class="cls-3" d="M154,219a1.33,1.33,0,1,0-1.59,1A1.33,1.33,0,0,0,154,219Z"/><path class="cls-4" d="M154,219a1.33,1.33,0,1,1-1-1.59,1.33,1.33,0,0,1,1,1.59m.49.11a1.83,1.83,0,1,0-2.19,1.39,1.84,1.84,0,0,0,2.19-1.39Z"/><path class="cls-3" d="M107.24,205.71a1.8,1.8,0,1,0,3.52.78,1.8,1.8,0,0,0-3.52-.78Z"/><path class="cls-4" d="M110.76,206.49a1.8,1.8,0,1,1-1.37-2.15,1.81,1.81,0,0,1,1.37,2.15m.49.11a2.3,2.3,0,1,0-2.75,1.75,2.31,2.31,0,0,0,2.75-1.75Z"/><path class="cls-3" d="M89.05,231.09a.92.92,0,1,0-1.1.7A.92.92,0,0,0,89.05,231.09Z"/><path class="cls-4" d="M89.05,231.09a.92.92,0,1,1-.7-1.1.92.92,0,0,1,.7,1.1m.49.11a1.42,1.42,0,1,0-1.7,1.08,1.43,1.43,0,0,0,1.7-1.08Z"/><path class="cls-3" d="M147.5,229.79a1,1,0,0,0-2-.44,1,1,0,1,0,2,.44Z"/><path class="cls-4" d="M147.5,229.79a1,1,0,1,1-.78-1.22,1,1,0,0,1,.78,1.22m.48.11a1.52,1.52,0,0,0-3-.66,1.52,1.52,0,1,0,3,.66Z"/></g></svg>